Coordinates
version=1
nRows=7
nColumns=40
inDegrees=yes

Units are S.I. units (second, meters, Newtons, ...)
Angles are in degrees.

endheader
time	pelvis_tilt	pelvis_list	pelvis_rotation	pelvis_tx	pelvis_ty	pelvis_tz	hip_flexion_r	hip_adduction_r	hip_rotation_r	knee_angle_r	knee_angle_r_beta	ankle_angle_r	subtalar_angle_r	mtp_angle_r	hip_flexion_l	hip_adduction_l	hip_rotation_l	knee_angle_l	knee_angle_l_beta	ankle_angle_l	subtalar_angle_l	mtp_angle_l	lumbar_extension	lumbar_bending	lumbar_rotation	arm_flex_r	arm_add_r	arm_rot_r	elbow_flex_r	pro_sup_r	wrist_flex_r	wrist_dev_r	arm_flex_l	arm_add_l	arm_rot_l	elbow_flex_l	pro_sup_l	wrist_flex_l	wrist_dev_l
     24.51000000	     -5.92425880	     -4.88124372	     -2.36302468	      1.00487206	      0.93486500	      0.42149639	     35.50816333	     -6.94138907	     -7.09788719	     60.69690593	     60.69690593	      1.35140570	    -10.61561999	     -1.03030783	     14.25040983	     -5.96906684	    -11.09971565	     19.24282617	     19.24282617	     13.81460730	     -3.90514158	     -1.43020291	    -11.17700231	      4.06418558	      4.15356440	      5.79467456	    -15.42613085	     -2.78540755	     57.21929379	     46.13282201	      0.00000000	      0.00000000	     25.52230386	    -18.46275196	      5.32030362	     53.14961764	     46.76388987	      0.00000000	      0.00000000
     24.52200000	     -6.00382088	     -4.82258763	     -2.52527900	      1.00338677	      0.93482247	      0.42177702	     36.13008458	     -6.75053426	     -7.15145221	     58.07604995	     58.07604995	      1.35120895	     -9.96587808	     -1.04027279	     13.47634618	     -5.87783424	    -11.40890325	     18.59681655	     18.59681655	     13.82835888	     -3.65017037	     -2.32861804	    -11.12616089	      3.97816921	      3.85756416	      5.52888082	    -15.05985552	     -2.88202849	     50.73197457	     46.32612926	      0.00000000	      0.00000000	     27.08531752	    -19.55727341	      6.50422203	     55.10786129	     46.71552531	      0.00000000	      0.00000000
     24.53400000	     -6.03354750	     -4.77590370	     -2.63524286	      1.00200380	      0.93476614	      0.42201767	     36.47810170	     -6.57510144	     -7.34093951	     55.04562264	     55.04562264	      1.29966375	     -9.33909369	     -1.19142826	     12.61321479	     -5.75034943	    -11.53951722	     17.87507126	     17.87507126	     13.85428390	     -3.53748556	     -3.08803428	    -11.20894274	      3.93503130	      3.59971289	      4.70041244	    -14.88936159	     -3.02224624	     45.88591747	     46.44897044	      0.00000000	      0.00000000	     28.51672924	    -20.34078623	      6.84296719	     57.28654521	     46.75378921	      0.00000000	      0.00000000
     24.54600000	     -6.06995762	     -4.65927542	     -2.76318718	      1.00074886	      0.93454792	      0.42228510	     36.68527986	     -6.44620709	     -7.54307760	     51.73473911	     51.73473911	      1.33975523	     -8.67290045	     -1.01490717	     11.74697686	     -5.55647094	    -11.76225377	     17.17724336	     17.17724336	     14.09622269	     -3.26036163	     -3.36315406	    -11.33524887	      3.86518552	      3.91186780	      2.78593628	    -15.19115861	     -2.99080204	     43.33521902	     46.51336813	      0.00000000	      0.00000000	     30.29327777	    -20.37028726	      6.68287058	     59.01016639	     46.81243536	      0.00000000	      0.00000000
     24.55800000	     -6.10100318	     -4.52880464	     -2.87630762	      0.99971118	      0.93415843	      0.42259073	     36.65757638	     -6.30374786	     -7.82673434	     48.07891981	     48.07891981	      1.46830046	     -8.05818115	     -0.87498657	     10.86618823	     -5.34522642	    -11.98987795	     16.47824975	     16.47824975	     14.31864769	     -2.97830038	     -3.76769024	    -11.39671200	      3.79644130	      4.13160880	      1.14654077	    -15.38845039	     -3.09482468	     40.49247394	     46.60058639	      0.00000000	      0.00000000	     31.86659197	    -20.49081431	      6.66552175	     60.73961825	     46.85752187	      0.00000000	      0.00000000
     24.57000000	     -6.20178447	     -4.42679130	     -2.93396621	      0.99877044	      0.93358334	      0.42287398	     36.50243167	     -6.14879649	     -8.31021611	     44.12178693	     44.12178693	      1.44608691	     -7.42527916	     -0.56064138	     10.06380687	     -5.15497966	    -12.13152024	     15.78545654	     15.78545654	     14.55832824	     -2.69325530	     -4.16969915	    -11.34410425	      3.79366026	      4.09857289	     -0.48491704	    -15.52256964	     -3.24405747	     38.08685579	     46.67949089	      0.00000000	      0.00000000	     33.17804502	    -20.64004196	      6.63276014	     62.30293782	     46.89767595	      0.00000000	      0.00000000
     24.58200000	     -6.29273241	     -4.13435466	     -3.02906558	      0.99804903	      0.93272584	      0.42328088	     36.18760111	     -6.10656485	     -8.75878003	     39.96651493	     39.96651493	      1.16394106	     -6.91548194	     -1.31913209	      9.14609451	     -4.73546231	    -12.32001022	     14.84840330	     14.84840330	     14.16499241	     -2.67467447	     -5.98608255	    -11.26286686	      3.50722623	      3.50830183	     -0.17030031	    -14.86975643	     -4.88526808	     31.55619626	     46.97995072	      0.00000000	      0.00000000	     33.69822982	    -21.81287988	      6.91855578	     65.45764752	     46.96481102	      0.00000000	      0.00000000
